<svg width="461.375px" height="137.6px" xmlns="http://www.w3.org/2000/svg" viewBox="19.3125 6.200000000000003 461.375 137.6" style="background: rgb(24, 24, 24);" preserveAspectRatio="xMidYMid"><defs><linearGradient id="editing-gradient-gradient" x1="0" x2="1" y1="0.5" y2="0.5" gradientUnits="objectBoundingBox"><stop offset="0" stop-color="#e7008a"></stop><stop offset="1" stop-color="#ff003a"></stop></linearGradient></defs><g><g transform="translate(87.75997734069824, 98.58500099182129)"><path d="M29.44-44.03L29.44-44.03Q33.54-44.03 36.74-42.14L36.74-42.14L36.74-42.14Q39.94-40.26 41.73-36.96L41.73-36.96L41.73-36.96Q43.52-33.66 43.52-29.57L43.52-29.57L43.52-28.74L43.52-28.74Q43.52-24.64 41.73-21.31L41.73-21.31L41.73-21.31Q39.94-17.98 36.74-16.10L36.74-16.10L36.74-16.10Q33.54-14.21 29.44-14.21L29.44-14.21L18.88-14.21L18.88 0L4.74 0L4.74-44.03L29.44-44.03ZM18.88-33.60L18.88-24.51L24.70-24.51L24.70-24.51Q26.94-24.51 28.06-25.66L28.06-25.66L28.06-25.66Q29.18-26.82 29.18-28.80L29.18-28.80L29.18-29.31L29.18-29.31Q29.18-31.36 28.06-32.48L28.06-32.48L28.06-32.48Q26.94-33.60 24.70-33.60L24.70-33.60L18.88-33.60ZM70.59-34.62L70.59-34.62Q72.06-34.62 73.22-34.27L73.22-34.27L73.22-34.27Q74.37-33.92 74.37-33.86L74.37-33.86L74.37-23.17L70.27-23.17L70.27-23.17Q66.30-23.17 64.54-21.12L64.54-21.12L64.54-21.12Q62.78-19.07 62.78-15.04L62.78-15.04L62.78 0L50.05 0L50.05-33.79L60.48-33.79L61.31-28.67L61.31-28.67Q62.46-31.62 64.96-33.12L64.96-33.12L64.96-33.12Q67.46-34.62 70.59-34.62L70.59-34.62ZM95.94-34.56L95.94-34.56Q105.22-34.56 110.11-30.21L110.11-30.21L110.11-30.21Q115.01-25.86 115.01-16.90L115.01-16.90L115.01-14.72L89.66-14.72L89.66-14.72Q89.66-11.07 91.30-9.22L91.30-9.22L91.30-9.22Q92.93-7.36 96.45-7.36L96.45-7.36L96.45-7.36Q99.65-7.36 101.15-8.70L101.15-8.70L101.15-8.70Q102.66-10.05 102.66-12.29L102.66-12.29L115.01-12.29L115.01-12.29Q115.01-6.14 110.34-2.69L110.34-2.69L110.34-2.69Q105.66 0.77 96.70 0.77L96.70 0.77L96.70 0.77Q87.30 0.77 82.11-3.62L82.11-3.62L82.11-3.62Q76.93-8 76.93-16.90L76.93-16.90L76.93-16.90Q76.93-25.60 81.98-30.08L81.98-30.08L81.98-30.08Q87.04-34.56 95.94-34.56L95.94-34.56ZM96.45-26.43L96.45-26.43Q90.43-26.43 89.73-20.74L89.73-20.74L102.14-20.74L102.14-20.74Q102.14-23.36 100.64-24.90L100.64-24.90L100.64-24.90Q99.14-26.43 96.45-26.43L96.45-26.43ZM136.51-33.79L143.68-33.79L143.68-25.15L136.51-25.15L136.51-12.29L136.51-12.29Q136.51-9.98 137.28-8.93L137.28-8.93L137.28-8.93Q138.05-7.87 140.10-7.87L140.10-7.87L143.68-7.87L143.68-0.38L143.68-0.38Q142.14 0.13 139.71 0.45L139.71 0.45L139.71 0.45Q137.28 0.77 135.49 0.77L135.49 0.77L135.49 0.77Q129.86 0.77 126.82-1.28L126.82-1.28L126.82-1.28Q123.78-3.33 123.78-8.26L123.78-8.26L123.78-25.15L119.04-25.15L119.04-33.79L124.29-33.79L127.04-44.03L136.51-44.03L136.51-33.79ZM167.04-34.56L167.04-34.56Q175.94-34.56 181.02-30.05L181.02-30.05L181.02-30.05Q186.11-25.54 186.11-16.90L186.11-16.90L186.11-16.90Q186.11-8.26 181.02-3.74L181.02-3.74L181.02-3.74Q175.94 0.77 167.04 0.77L167.04 0.77L167.04 0.77Q158.14 0.77 153.09-3.71L153.09-3.71L153.09-3.71Q148.03-8.19 148.03-16.90L148.03-16.90L148.03-16.90Q148.03-25.60 153.09-30.08L153.09-30.08L153.09-30.08Q158.14-34.56 167.04-34.56L167.04-34.56ZM167.04-25.92L167.04-25.92Q160.77-25.92 160.77-18.69L160.77-18.69L160.77-15.04L160.77-15.04Q160.77-7.87 167.04-7.87L167.04-7.87L167.04-7.87Q173.38-7.87 173.38-15.04L173.38-15.04L173.38-18.69L173.38-18.69Q173.38-25.92 167.04-25.92L167.04-25.92ZM212.80-34.62L212.80-34.62Q214.27-34.62 215.42-34.27L215.42-34.27L215.42-34.27Q216.58-33.92 216.58-33.86L216.58-33.86L216.58-23.17L212.48-23.17L212.48-23.17Q208.51-23.17 206.75-21.12L206.75-21.12L206.75-21.12Q204.99-19.07 204.99-15.04L204.99-15.04L204.99 0L192.26 0L192.26-33.79L202.69-33.79L203.52-28.67L203.52-28.67Q204.67-31.62 207.17-33.12L207.17-33.12L207.17-33.12Q209.66-34.62 212.80-34.62L212.80-34.62ZM233.86-37.76L221.12-37.76L221.12-46.40L233.86-46.40L233.86-37.76ZM233.86 0L221.12 0L221.12-33.79L233.86-33.79L233.86 0ZM258.69-34.56L258.69-34.56Q266.43-34.56 271.30-31.97L271.30-31.97L271.30-31.97Q276.16-29.38 276.16-23.55L276.16-23.55L276.16-10.37L276.16-10.37Q276.16-9.28 276.67-8.58L276.67-8.58L276.67-8.58Q277.18-7.87 278.21-7.87L278.21-7.87L280.51-7.87L280.51-0.51L280.51-0.51Q280.32-0.38 279.52-0.10L279.52-0.10L279.52-0.10Q278.72 0.19 277.25 0.48L277.25 0.48L277.25 0.48Q275.78 0.77 273.86 0.77L273.86 0.77L273.86 0.77Q270.14 0.77 267.74-0.35L267.74-0.35L267.74-0.35Q265.34-1.47 264.45-3.46L264.45-3.46L264.45-3.46Q262.02-1.54 259.01-0.38L259.01-0.38L259.01-0.38Q256 0.77 251.97 0.77L251.97 0.77L251.97 0.77Q240.06 0.77 240.06-8.70L240.06-8.70L240.06-8.70Q240.06-13.63 242.72-16.22L242.72-16.22L242.72-16.22Q245.38-18.82 250.37-19.78L250.37-19.78L250.37-19.78Q255.36-20.74 263.42-20.74L263.42-20.74L263.42-22.40L263.42-22.40Q263.42-24.38 262.05-25.41L262.05-25.41L262.05-25.41Q260.67-26.43 258.50-26.43L258.50-26.43L258.50-26.43Q256.51-26.43 255.07-25.73L255.07-25.73L255.07-25.73Q253.63-25.02 253.63-23.49L253.63-23.49L253.63-23.23L241.09-23.23L241.09-23.23Q241.02-23.55 241.02-24.13L241.02-24.13L241.02-24.13Q241.02-28.93 245.60-31.74L245.60-31.74L245.60-31.74Q250.18-34.56 258.69-34.56L258.69-34.56ZM263.42-14.72L263.42-14.72Q257.98-14.72 255.39-13.54L255.39-13.54L255.39-13.54Q252.80-12.35 252.80-10.37L252.80-10.37L252.80-10.37Q252.80-7.17 257.15-7.17L257.15-7.17L257.15-7.17Q259.65-7.17 261.54-8.51L261.54-8.51L261.54-8.51Q263.42-9.86 263.42-11.84L263.42-11.84L263.42-14.72ZM307.97-34.56L307.97-34.56Q313.86-34.56 316.80-31.30L316.80-31.30L316.80-31.30Q319.74-28.03 319.74-21.89L319.74-21.89L319.74 0L307.01 0L307.01-20.35L307.01-20.35Q307.01-22.53 305.89-23.84L305.89-23.84L305.89-23.84Q304.77-25.15 302.72-25.15L302.72-25.15L302.72-25.15Q300.35-25.15 298.88-23.62L298.88-23.62L298.88-23.62Q297.41-22.08 297.41-19.84L297.41-19.84L297.41 0L284.67 0L284.67-33.79L295.10-33.79L295.94-28.67L295.94-28.67Q297.92-31.36 301.15-32.96L301.15-32.96L301.15-32.96Q304.38-34.56 307.97-34.56L307.97-34.56Z" fill="url(#editing-gradient-gradient)"></path></g></g><style>text {
  font-size: 64px;
  font-family: Arial Black;
  dominant-baseline: central;
  text-anchor: middle;
}</style></svg>