<svg width="432.81874999999997px" height="122px" xmlns="http://www.w3.org/2000/svg" viewBox="33.59062500000002 14 432.81874999999997 122" style="background: rgba(0, 0, 0, 0);" preserveAspectRatio="xMidYMid"><defs><linearGradient id="editing-outline-gradient" x1="-0.41354545764260087" x2="1.4135454576426008" y1="0.09326335692419985" y2="0.9067366430758002"><stop offset="0" stop-color="#ee4208"></stop><stop offset="1" stop-color="#4139ff"></stop></linearGradient><filter id="editing-outline" x="-100%" y="-100%" width="300%" height="300%"><feMorphology in="SourceGraphic" operator="dilate" radius="1" result="outline"></feMorphology><feComposite operator="out" in="outline" in2="SourceAlpha"></feComposite></filter></defs><g filter="url(#editing-outline)"><g transform="translate(100.01500394940376, 99)"><path d="M26.11-42.69L26.11-42.69L26.11-42.69Q41.79-42.69 41.79-31.62L41.79-31.62L41.79-31.62Q41.79-25.54 37.89-21.89L37.89-21.89L37.89-21.89Q34.05-18.24 27.33-18.24L27.33-18.24L27.33-18.24Q24.19-18.24 21.76-20.03L21.76-20.03L21.76-20.03Q20.61-20.80 19.84-21.82L19.84-21.82L19.84-21.82Q24.51-21.82 26.98-24.67L26.98-24.67L26.98-24.67Q29.44-27.52 29.44-33.09L29.44-33.09L29.44-33.09Q29.44-38.66 23.94-38.66L23.94-38.66L22.40-38.66L22.40-38.66Q22.02-38.66 21.70-38.59L21.70-38.59L14.34 0L0.45 0L8.32-41.92L8.32-41.92Q15.17-42.56 19.14-42.62L19.14-42.62L19.14-42.62Q23.10-42.69 26.11-42.69ZM62.14-17.98L62.14-17.98L62.14-17.98Q64.45-22.08 64.45-26.24L64.45-26.24L64.45-26.24Q64.45-28.99 62.46-28.99L62.46-28.99L62.46-28.99Q60.93-28.99 59.33-26.37L59.33-26.37L59.33-26.37Q57.66-23.74 57.15-20.35L57.15-20.35L53.82 0L40.58 1.28L47.10-32.64L57.66-33.92L56.51-27.46L56.51-27.46Q59.65-33.92 66.69-33.92L66.69-33.92L66.69-33.92Q70.40-33.92 72.42-32L72.42-32L72.42-32Q74.43-30.08 74.43-26.14L74.43-26.14L74.43-26.14Q74.43-22.21 71.84-19.71L71.84-19.71L71.84-19.71Q69.25-17.22 64.83-17.22L64.83-17.22L64.83-17.22Q62.91-17.22 62.14-17.98ZM101.38-10.82L101.38-10.82L101.38-10.82Q102.98-9.73 102.98-7.33L102.98-7.33L102.98-7.33Q102.98-4.93 101.76-3.39L101.76-3.39L101.76-3.39Q100.54-1.86 98.56-0.83L98.56-0.83L98.56-0.83Q94.46 1.28 90.05 1.28L90.05 1.28L90.05 1.28Q85.63 1.28 83.04 0.32L83.04 0.32L83.04 0.32Q80.45-0.64 78.72-2.43L78.72-2.43L78.72-2.43Q75.33-5.82 75.33-12.03L75.33-12.03L75.33-12.03Q75.33-21.70 80.58-27.58L80.58-27.58L80.58-27.58Q86.21-33.92 96-33.92L96-33.92L96-33.92Q102.08-33.92 105.09-31.36L105.09-31.36L105.09-31.36Q107.33-29.44 107.33-26.30L107.33-26.30L107.33-26.30Q107.33-15.04 87.87-15.04L87.87-15.04L87.87-15.04Q87.62-13.38 87.62-11.97L87.62-11.97L87.62-11.97Q87.62-9.02 88.93-7.90L88.93-7.90L88.93-7.90Q90.24-6.78 92.67-6.78L92.67-6.78L92.67-6.78Q95.10-6.78 97.70-7.90L97.70-7.90L97.70-7.90Q100.29-9.02 101.38-10.82ZM88.32-17.79L88.32-17.79L88.32-17.79Q92.86-17.79 95.49-20.61L95.49-20.61L95.49-20.61Q98.11-23.30 98.11-27.58L98.11-27.58L98.11-27.58Q98.11-29.06 97.57-29.86L97.57-29.86L97.57-29.86Q97.02-30.66 95.94-30.66L95.94-30.66L95.94-30.66Q94.85-30.66 93.92-30.24L93.92-30.24L93.92-30.24Q92.99-29.82 92.03-28.42L92.03-28.42L92.03-28.42Q89.66-25.22 88.32-17.79ZM110.53-6.40L110.53-6.40L110.53-6.40Q110.53-8.13 111.42-12.48L111.42-12.48L114.82-29.76L111.04-29.76L111.30-31.68L111.30-31.68Q118.98-33.98 126.40-39.62L126.40-39.62L129.47-39.62L127.94-32.64L132.93-32.64L132.35-29.76L127.42-29.76L124.16-12.48L124.16-12.48Q123.33-8.51 123.33-7.17L123.33-7.17L123.33-7.17Q123.33-4.10 126.02-3.46L126.02-3.46L126.02-3.46Q125.38-1.28 123.07 0L123.07 0L123.07 0Q120.77 1.28 117.50 1.28L117.50 1.28L117.50 1.28Q114.24 1.28 112.38-0.77L112.38-0.77L112.38-0.77Q110.53-2.82 110.53-6.40ZM146.30 1.28L146.30 1.28L146.30 1.28Q132.22 1.28 132.22-11.97L132.22-11.97L132.22-11.97Q132.22-21.38 137.41-27.46L137.41-27.46L137.41-27.46Q142.91-33.92 152.45-33.92L152.45-33.92L152.45-33.92Q159.36-33.92 162.88-30.72L162.88-30.72L162.88-30.72Q166.40-27.52 166.40-20.80L166.40-20.80L166.40-20.80Q166.40-10.56 160.90-4.61L160.90-4.61L160.90-4.61Q155.52 1.28 146.30 1.28ZM147.97-26.56L147.97-26.56L147.97-26.56Q147.20-24.83 146.59-22.24L146.59-22.24L146.59-22.24Q145.98-19.65 145.22-15.55L145.22-15.55L145.22-15.55Q144.45-11.46 144.45-6.40L144.45-6.40L144.45-6.40Q144.45-4.74 144.99-3.65L144.99-3.65L144.99-3.65Q145.54-2.56 147.01-2.56L147.01-2.56L147.01-2.56Q148.48-2.56 149.41-3.26L149.41-3.26L149.41-3.26Q150.34-3.97 151.04-5.63L151.04-5.63L151.04-5.63Q152.32-8.58 153.34-14.05L153.34-14.05L153.34-14.05Q154.37-19.52 154.46-21.89L154.46-21.89L154.46-21.89Q154.56-24.26 154.56-26.02L154.56-26.02L154.56-26.02Q154.56-27.78 154.05-28.93L154.05-28.93L154.05-28.93Q153.54-30.08 152.10-30.08L152.10-30.08L152.10-30.08Q150.66-30.08 149.70-29.18L149.70-29.18L149.70-29.18Q148.74-28.29 147.97-26.56ZM190.21-17.98L190.21-17.98L190.21-17.98Q192.51-22.08 192.51-26.24L192.51-26.24L192.51-26.24Q192.51-28.99 190.53-28.99L190.53-28.99L190.53-28.99Q188.99-28.99 187.39-26.37L187.39-26.37L187.39-26.37Q185.73-23.74 185.22-20.35L185.22-20.35L181.89 0L168.64 1.28L175.17-32.64L185.73-33.92L184.58-27.46L184.58-27.46Q187.71-33.92 194.75-33.92L194.75-33.92L194.75-33.92Q198.46-33.92 200.48-32L200.48-32L200.48-32Q202.50-30.08 202.50-26.14L202.50-26.14L202.50-26.14Q202.50-22.21 199.90-19.71L199.90-19.71L199.90-19.71Q197.31-17.22 192.90-17.22L192.90-17.22L192.90-17.22Q190.98-17.22 190.21-17.98ZM218.88-3.52L218.88-3.52L218.88-3.52Q216.90 1.28 210.56 1.28L210.56 1.28L210.56 1.28Q207.30 1.28 205.25-0.96L205.25-0.96L205.25-0.96Q203.52-2.94 203.52-4.93L203.52-4.93L203.52-4.93Q203.52-10.11 205.89-20.22L205.89-20.22L208.26-32.64L221.25-33.92L217.34-13.70L217.34-13.70Q216.26-8.96 216.26-7.30L216.26-7.30L216.26-7.30Q216.26-3.65 218.88-3.52ZM209.41-41.54L209.41-41.54L209.41-41.54Q209.41-44.03 211.49-45.38L211.49-45.38L211.49-45.38Q213.57-46.72 216.58-46.72L216.58-46.72L216.58-46.72Q219.58-46.72 221.41-45.38L221.41-45.38L221.41-45.38Q223.23-44.03 223.23-41.54L223.23-41.54L223.23-41.54Q223.23-39.04 221.22-37.76L221.22-37.76L221.22-37.76Q219.20-36.48 216.19-36.48L216.19-36.48L216.19-36.48Q213.18-36.48 211.30-37.76L211.30-37.76L211.30-37.76Q209.41-39.04 209.41-41.54ZM227.10-1.92L227.10-1.92L227.10-1.92Q225.60-3.58 224.93-6.21L224.93-6.21L224.93-6.21Q224.26-8.83 224.26-13.12L224.26-13.12L224.26-13.12Q224.26-17.41 225.73-21.31L225.73-21.31L225.73-21.31Q227.20-25.22 229.89-28.03L229.89-28.03L229.89-28.03Q235.39-33.92 244.48-33.92L244.48-33.92L244.48-33.92Q247.74-33.92 250.11-32.83L250.11-32.83L261.06-33.92L256.32-8.96L256.32-8.96Q256.13-8.19 256.13-6.78L256.13-6.78L256.13-6.78Q256.13-5.38 256.99-4.48L256.99-4.48L256.99-4.48Q257.86-3.58 259.14-3.46L259.14-3.46L259.14-3.46Q258.50-1.28 256.16 0L256.16 0L256.16 0Q253.82 1.28 251.20 1.28L251.20 1.28L251.20 1.28Q248.58 1.28 246.82 0.29L246.82 0.29L246.82 0.29Q245.06-0.70 244.54-2.37L244.54-2.37L244.54-2.37Q243.52-0.77 241.34 0.26L241.34 0.26L241.34 0.26Q239.17 1.28 236.26 1.28L236.26 1.28L236.26 1.28Q233.34 1.28 230.98 0.51L230.98 0.51L230.98 0.51Q228.61-0.26 227.10-1.92ZM240.61-27.90L240.61-27.90L240.61-27.90Q239.87-26.75 239.23-24.80L239.23-24.80L239.23-24.80Q238.59-22.85 237.54-17.63L237.54-17.63L237.54-17.63Q236.48-12.42 236.48-8.70L236.48-8.70L236.48-8.70Q236.48-4.99 237.06-3.90L237.06-3.90L237.06-3.90Q237.63-2.82 238.66-2.82L238.66-2.82L238.66-2.82Q240.70-2.82 242.21-4.77L242.21-4.77L242.21-4.77Q243.71-6.72 244.29-10.18L244.29-10.18L247.68-28.93L247.68-28.93Q246.34-30.08 244.77-30.08L244.77-30.08L244.77-30.08Q243.20-30.08 242.27-29.57L242.27-29.57L242.27-29.57Q241.34-29.06 240.61-27.90ZM291.58 1.28L291.58 1.28L291.58 1.28Q283.84 1.28 283.84-4.74L283.84-4.74L283.84-4.74Q283.90-6.40 284.42-9.22L284.42-9.22L285.57-15.10L285.57-15.10Q287.30-23.42 287.30-25.28L287.30-25.28L287.30-25.28Q287.30-28.99 285.12-28.99L285.12-28.99L285.12-28.99Q281.47-28.99 279.55-19.46L279.55-19.46L275.78 0L262.91 1.28L269.57-32.70L280.06-33.92L279.04-27.65L279.04-27.65Q282.05-33.92 291.26-33.92L291.26-33.92L291.26-33.92Q295.74-33.92 297.63-32.03L297.63-32.03L297.63-32.03Q299.52-30.14 299.52-25.92L299.52-25.92L299.52-25.92Q299.52-21.95 297.47-12.67L297.47-12.67L297.47-12.67Q296.51-8.51 296.51-6.94L296.51-6.94L296.51-6.94Q296.51-5.38 297.38-4.48L297.38-4.48L297.38-4.48Q298.24-3.58 299.52-3.46L299.52-3.46L299.52-3.46Q298.88-1.28 296.67 0L296.67 0L296.67 0Q294.46 1.28 291.58 1.28Z" fill="url(#editing-outline-gradient)"></path></g></g><style>text {
  font-size: 64px;
  font-family: Arial Black;
  dominant-baseline: central;
  text-anchor: middle;
}</style></svg>