<svg height="512" viewBox="0 0 256 256" width="512" xmlns="http://www.w3.org/2000/svg"><path d="m248 96.655a136.66 136.66 0 0 1 -.13 63.218 26.891 26.891 0 0 1 -26.194 20.744h-41.076v41.083c0 11.669-7.588 23.1-21.326 26.331a136.635 136.635 0 0 1 -62.565.006c-13.709-3.223-21.358-14.602-21.358-26.337v-66.8a26.911 26.911 0 0 1 26.911-26.911h51.427a26.912 26.912 0 0 0 26.911-26.908v-25.713h41.078a26.892 26.892 0 0 1 26.322 21.287z" fill="#f0c020"/><path d="m180.6 34.292v66.789a26.912 26.912 0 0 1 -26.912 26.912h-51.426a26.911 26.911 0 0 0 -26.911 26.907v25.713h-41.082a26.891 26.891 0 0 1 -26.19-20.728 136.691 136.691 0 0 1 0-63.788 26.892 26.892 0 0 1 26.192-20.729h41.08v-41.079a26.9 26.9 0 0 1 21.288-26.322 136.645 136.645 0 0 1 62.545-.028c13.645 3.202 21.416 14.474 21.416 26.353z" fill="#72c1e8"/><circle cx="106.102" cy="42.13" fill="#fff" r="8.41" transform="matrix(.924 -.383 .383 .924 -8.046 43.81)"/><circle cx="149.849" cy="213.855" fill="#fff" r="8.41"/><path d="m169.975 224.765a2.5 2.5 0 0 1 -2.5-2.5v-4.854a2.5 2.5 0 0 1 5 0v4.854a2.5 2.5 0 0 1 -2.5 2.5zm0-14.854a2.5 2.5 0 0 1 -2.5-2.5v-40.794a2.5 2.5 0 0 1 2.5-2.5h51.7a10.355 10.355 0 0 0 10.132-8.019 120.884 120.884 0 0 0 0-56.24 10.34 10.34 0 0 0 -10.125-7.99 2.5 2.5 0 0 1 0-5c6.723 0 13.2 4.237 15.116 12.37a125.875 125.875 0 0 1 -.118 58 15.333 15.333 0 0 1 -15 11.877h-49.2v38.294a2.5 2.5 0 0 1 -2.505 2.502z" fill="#f9e5af"/><path d="m61.351 169.117a2.5 2.5 0 0 1 -2.5-2.5v-4.481a2.5 2.5 0 0 1 5 0v4.481a2.5 2.5 0 0 1 -2.5 2.5zm-.074-14.484a2.5 2.5 0 0 1 -2.327-2.661 43.51 43.51 0 0 1 43.312-40.48h51.427a10.422 10.422 0 0 0 10.411-10.411v-66.789a10.351 10.351 0 0 0 -8.013-10.131l-.671-.161a2.5 2.5 0 0 1 1.14-4.868l.671.157a15.331 15.331 0 0 1 11.873 15v66.789a15.428 15.428 0 0 1 -15.411 15.411h-51.427a38.5 38.5 0 0 0 -38.324 35.814 2.5 2.5 0 0 1 -2.661 2.33z" fill="#c5e5ff"/><path d="m250.3 95.514a29.435 29.435 0 0 0 -28.62-22.65h-38.59v-11.57a2.5 2.5 0 0 0 -4.99-.02.035.035 0 0 0 -.01.02v39.79a24.5 24.5 0 0 1 -24.41 24.41h-51.42a29.388 29.388 0 0 0 -29.41 29.41v23.21h-38.576a24.281 24.281 0 0 1 -23.76-18.8 135.341 135.341 0 0 1 -3.02-17.77 2.5 2.5 0 0 0 -4.98.51 140.184 140.184 0 0 0 3.13 18.41 29.406 29.406 0 0 0 28.63 22.65h38.58v38.58a29.409 29.409 0 0 0 23.22 28.76c4.676.754 28.643 7.972 63.99-.04a29.427 29.427 0 0 0 23.04-28.72v-38.58h12.01a2.5 2.5 0 0 0 0-5h-67.14a2.5 2.5 0 0 0 0 5h50.126v38.58a24.292 24.292 0 0 1 -19.4 23.9 134.7 134.7 0 0 1 -61.42.01c-12.655-3-19.43-13.259-19.43-23.91v-66.794a24.489 24.489 0 0 1 24.41-24.41h51.43a29.42 29.42 0 0 0 29.41-29.41v-23.216h38.58a24.289 24.289 0 0 1 23.8 19.03 3.383 3.383 0 0 1 .08.34c5.083 21.6 4.421 44.5-.13 62.07a24.279 24.279 0 0 1 -23.76 18.81h-6.56a2.5 2.5 0 0 0 0 5h6.56a29.4 29.4 0 0 0 28.63-22.67c6.219-26.199 3.906-43.666 0-64.93z"/><circle cx="205.114" cy="180.614" r="2.5"/><path d="m180.6 48.794a2.5 2.5 0 1 0 2.49 2.5 2.509 2.509 0 0 0 -2.49-2.5z"/><path d="m4.444 124.324a2.5 2.5 0 0 0 2.5-2.37v-.02a134.257 134.257 0 0 1 3.57-25.26 24.279 24.279 0 0 1 23.76-18.81h93.7a2.5 2.5 0 0 0 0-5h-50.12v-38.57a24.282 24.282 0 0 1 19.36-23.894c21.223-5 43.46-4.493 61.6.02a24.3 24.3 0 0 1 19.28 23.87v7a2.505 2.505 0 0 0 5.01 0l-.01-7c0-12.964-8.506-25.332-23.34-28.79a139.672 139.672 0 0 0 -63.69.03 29.427 29.427 0 0 0 -23.21 28.76v38.57h-38.58c-12.832 0-25.245 8.387-28.78 23.29a140.313 140.313 0 0 0 -3.55 25.56 2.5 2.5 0 0 0 2.5 2.614z"/><path d="m4.424 134.324a2.508 2.508 0 0 0 2.43-2.57 2.471 2.471 0 0 0 -2.57-2.43 2.5 2.5 0 1 0 .14 5z"/><path d="m95.192 42.13a10.91 10.91 0 1 0 10.908-10.91 10.922 10.922 0 0 0 -10.908 10.91zm16.819 0a5.91 5.91 0 1 1 -5.909-5.91 5.916 5.916 0 0 1 5.909 5.91z"/><path d="m160.759 213.856a10.91 10.91 0 1 0 -10.91 10.909 10.922 10.922 0 0 0 10.91-10.909zm-16.82 0a5.91 5.91 0 1 1 5.91 5.909 5.917 5.917 0 0 1 -5.91-5.909z"/></svg>